<?xml version="1.0" standalone="no"?>
<!DOCTYPE svg PUBLIC "-//W3C//DTD SVG 20010904//EN"
 "http://www.w3.org/TR/2001/REC-SVG-20010904/DTD/svg10.dtd">
<svg version="1.0" xmlns="http://www.w3.org/2000/svg"
 width="1998.000000pt" height="120.000000pt" viewBox="0 0 1998.000000 120.000000"
 preserveAspectRatio="xMidYMid meet">

<g transform="translate(0.000000,120.000000) scale(0.100000,-0.100000)"
fill="#000000" stroke="none">
<path d="M186 808 c-72 -71 -186 -197 -186 -208 0 -11 193 -219 216 -233 20
-12 54 11 54 36 0 14 -31 55 -81 110 l-81 87 81 89 c79 87 93 115 69 139 -19
19 -36 14 -72 -20z"/>
<path d="M426 728 c-58 -62 -106 -119 -106 -126 0 -16 184 -218 212 -233 25
-13 58 6 58 33 0 13 -32 54 -80 104 -44 46 -80 89 -80 95 0 6 36 48 80 93 83
85 97 116 61 136 -11 5 -24 10 -30 10 -5 0 -57 -51 -115 -112z"/>
<path d="M747 731 c-68 -69 -107 -116 -107 -129 0 -22 174 -213 213 -233 21
-12 57 13 57 39 0 8 -39 54 -87 103 l-87 89 87 89 c48 49 87 95 87 103 0 16
-31 48 -46 48 -6 0 -58 -49 -117 -109z"/>
<path d="M1158 828 c-37 -31 -208 -218 -208 -229 0 -16 220 -239 236 -239 7 0
20 10 28 22 20 28 12 41 -81 139 l-75 79 77 82 c94 102 98 109 79 136 -17 25
-33 28 -56 10z"/>
<path d="M1378 728 c-60 -62 -108 -119 -108 -126 0 -16 195 -228 217 -236 22
-9 53 12 53 35 0 12 -34 57 -80 107 -44 48 -80 89 -80 93 0 3 36 45 80 92 46
49 80 94 80 106 0 18 -25 41 -47 41 -4 0 -56 -50 -115 -112z"/>
<path d="M18332 828 c-24 -24 -10 -53 69 -140 l81 -88 -81 -87 c-49 -53 -81
-96 -81 -109 0 -29 26 -49 48 -38 25 13 222 220 222 234 0 6 -37 51 -81 98
-140 149 -150 157 -177 130z"/>
<path d="M18647 822 c-10 -10 -17 -24 -17 -31 0 -6 39 -52 87 -102 l86 -89
-86 -89 c-48 -49 -87 -95 -87 -103 0 -8 9 -23 19 -32 26 -24 38 -17 154 102
65 67 97 107 97 122 0 16 -34 57 -107 131 -59 60 -112 109 -118 109 -7 0 -19
-8 -28 -18z"/>
<path d="M18968 829 c-35 -20 -20 -52 69 -141 l88 -88 -88 -88 c-91 -91 -105
-122 -66 -142 16 -9 26 -8 43 4 35 23 201 205 204 225 3 19 -201 241 -221 241
-7 0 -20 -5 -29 -11z"/>
<path d="M19282 828 c-24 -24 -10 -52 69 -139 l81 -89 -81 -89 c-47 -51 -81
-97 -81 -109 0 -25 34 -46 54 -35 23 13 216 222 216 233 0 6 -32 46 -71 88
-142 153 -160 167 -187 140z"/>
<path d="M19597 822 c-10 -10 -17 -24 -17 -30 0 -6 39 -52 86 -102 l87 -91
-87 -88 c-47 -49 -86 -95 -86 -103 0 -15 30 -48 45 -48 4 0 57 48 116 107 83
81 109 113 109 132 0 19 -27 53 -107 134 -58 59 -112 107 -118 107 -7 0 -19
-8 -28 -18z"/>
<path d="M6513 743 c-73 -3 -93 -7 -93 -18 0 -8 7 -15 15 -15 12 0 15 -19 15
-110 0 -89 -3 -112 -15 -116 -8 -4 -15 -12 -15 -20 0 -11 22 -14 106 -14 l105
0 -3 48 c-2 34 -7 47 -18 47 -9 0 -16 -11 -18 -27 -3 -26 -7 -28 -48 -28 l-44
0 0 45 c0 45 0 45 35 45 24 0 35 -5 35 -15 0 -8 7 -15 15 -15 11 0 15 12 15
50 0 48 -14 67 -26 35 -4 -9 -19 -15 -40 -15 -34 0 -34 1 -34 45 l0 45 39 0
c33 0 40 -4 45 -25 11 -42 34 -30 38 20 2 27 -1 44 -7 43 -5 -1 -52 -4 -102
-5z"/>
<path d="M7913 734 c-20 -10 -40 -32 -53 -58 -53 -111 7 -226 119 -226 37 0
49 6 82 39 29 29 39 47 40 72 0 33 1 32 20 -19 28 -73 62 -93 149 -89 l65 3 3
47 c4 55 -17 65 -34 18 -22 -56 -101 -46 -125 17 -14 36 -6 115 15 146 25 39
81 37 104 -4 25 -44 42 -38 42 14 0 41 -19 74 -28 48 -2 -7 -12 -8 -33 0 -66
23 -135 -18 -162 -97 l-14 -39 -6 40 c-13 82 -106 126 -184 88z m106 -45 c43
-47 34 -163 -16 -196 -23 -15 -28 -15 -52 -2 -34 19 -51 54 -51 109 0 63 30
110 69 110 18 0 38 -9 50 -21z"/>
<path d="M8423 734 c-20 -10 -40 -32 -53 -58 -53 -111 7 -226 118 -226 86 0
147 97 121 193 -13 51 -33 75 -76 93 -42 18 -70 17 -110 -2z m106 -45 c43 -47
34 -163 -16 -196 -23 -15 -28 -15 -52 -2 -34 19 -51 54 -51 109 0 63 30 110
69 110 18 0 38 -9 50 -21z"/>
<path d="M9183 743 c-120 -3 -152 -10 -124 -28 5 -3 -2 -39 -16 -83 -15 -42
-28 -72 -30 -67 -2 6 -14 40 -27 78 -13 37 -19 67 -15 67 5 0 9 7 9 15 0 12
-17 15 -95 15 -91 0 -114 -8 -79 -28 12 -6 14 -23 12 -73 l-3 -64 -55 82 c-54
82 -55 83 -97 83 -32 0 -43 -4 -43 -15 0 -8 7 -15 15 -15 23 0 22 -215 -1
-228 -26 -15 -6 -32 37 -32 41 0 51 14 24 34 -13 9 -15 29 -13 95 l3 83 70
-103 c39 -57 77 -104 85 -104 12 0 15 22 18 128 3 125 3 128 24 125 16 -2 26
-17 40 -58 46 -141 71 -200 83 -200 7 0 29 46 51 108 20 59 41 117 45 130 5
13 17 22 29 22 19 0 20 -6 20 -115 0 -70 -4 -115 -10 -115 -5 0 -10 -7 -10
-15 0 -12 18 -15 104 -15 l104 0 -6 48 c-3 26 -9 49 -13 50 -5 2 -9 26 -9 53
0 37 -4 49 -15 49 -8 0 -15 -7 -15 -15 0 -10 -11 -15 -35 -15 -35 0 -35 0 -35
45 l0 45 39 0 c33 0 40 -4 43 -22 2 -13 11 -24 21 -26 14 -3 17 4 17 42 0 25
-3 45 -7 44 -5 -1 -68 -4 -140 -5z m97 -178 c0 -8 5 -15 10 -15 6 0 10 -13 10
-30 0 -29 -2 -30 -45 -30 l-45 0 0 45 c0 45 0 45 35 45 24 0 35 -5 35 -15z"/>
<path d="M9609 720 c-51 -51 -33 -106 47 -144 44 -21 54 -30 54 -51 0 -52 -80
-53 -100 0 -10 27 -30 34 -30 10 0 -31 -35 -15 -47 22 -9 31 -8 39 8 56 27 30
24 73 -7 102 -24 22 -36 25 -105 25 -64 0 -79 -3 -79 -15 0 -8 5 -15 10 -15 6
0 10 -45 10 -115 0 -70 -4 -115 -10 -115 -5 0 -10 -7 -10 -15 0 -12 13 -15 55
-15 42 0 55 3 55 15 0 8 -7 15 -15 15 -11 0 -15 12 -15 50 0 37 4 50 14 50 24
0 46 -30 46 -61 0 -17 5 -39 10 -50 12 -21 50 -25 68 -7 7 7 12 8 12 3 0 -6
29 -11 64 -13 57 -2 68 1 95 24 23 19 31 34 31 58 0 37 -24 63 -88 95 -48 25
-60 44 -41 67 19 23 62 13 77 -18 22 -46 44 -36 40 19 l-3 46 -59 3 c-53 3
-61 1 -87 -26z m-121 -22 c7 -7 12 -24 12 -38 0 -32 -17 -50 -47 -50 -21 0
-23 4 -23 50 0 46 2 50 23 50 13 0 28 -5 35 -12z"/>
<path d="M9873 743 c-73 -3 -93 -7 -93 -18 0 -8 7 -15 15 -15 12 0 15 -19 15
-110 0 -89 -3 -112 -15 -116 -8 -4 -15 -12 -15 -20 0 -11 22 -14 106 -14 l105
0 -3 48 c-2 34 -7 47 -18 47 -9 0 -16 -11 -18 -27 -3 -26 -7 -28 -48 -28 l-44
0 0 45 c0 45 0 45 35 45 24 0 35 -5 35 -15 0 -8 7 -15 15 -15 11 0 15 12 15
50 0 48 -14 67 -26 35 -4 -9 -19 -15 -40 -15 -34 0 -34 1 -34 45 l0 45 40 0
c34 0 41 -4 46 -25 10 -42 32 -30 36 20 2 27 -1 44 -7 43 -5 -1 -52 -4 -102
-5z"/>
<path d="M11293 735 c-12 -8 -25 -30 -28 -48 -4 -17 -13 -35 -19 -39 -8 -6 -7
-8 2 -8 16 0 17 -151 0 -168 -9 -9 -2 -12 33 -12 35 1 40 3 27 11 -15 8 -18
24 -18 89 0 74 1 79 23 83 l22 4 -23 2 c-20 1 -23 5 -20 38 4 44 34 60 40 21
3 -26 21 -28 27 -2 2 10 -5 24 -15 31 -22 16 -25 16 -51 -2z"/>
<path d="M11411 724 c-12 -15 -21 -37 -21 -50 0 -16 -6 -24 -17 -24 -12 0 -14
-3 -6 -8 18 -11 20 -162 2 -173 -9 -6 3 -8 36 -8 28 1 42 3 33 6 -15 4 -18 17
-18 88 0 79 1 84 23 88 l22 4 -22 2 c-20 1 -23 7 -23 42 0 33 3 40 18 37 9 -2
16 -11 14 -20 -4 -24 13 -31 29 -12 11 14 10 19 -10 35 -30 25 -36 24 -60 -7z"/>
<path d="M4964 725 c-42 -22 -64 -64 -64 -125 0 -93 53 -149 129 -136 20 4 44
7 54 8 12 2 17 11 16 33 0 28 -1 29 -11 8 -6 -12 -26 -28 -45 -34 -30 -10 -39
-9 -62 8 -53 40 -63 152 -19 208 35 45 111 30 131 -25 3 -8 6 1 6 20 1 27 -3
36 -16 37 -10 1 -34 4 -53 7 -23 4 -46 1 -66 -9z"/>
<path d="M6200 730 c0 -6 7 -13 15 -16 23 -9 22 -234 -1 -234 -9 0 -14 -6 -11
-12 2 -9 28 -13 80 -13 61 0 81 4 104 21 37 27 43 76 14 115 -12 17 -17 30
-11 34 19 12 11 73 -12 95 -18 17 -35 20 -100 20 -47 0 -78 -4 -78 -10z m140
-39 c14 -27 13 -37 -6 -55 -29 -30 -44 -20 -44 29 0 38 3 45 20 45 10 0 24 -9
30 -19z m15 -125 c24 -36 5 -76 -35 -76 -29 0 -30 1 -30 50 0 47 2 50 25 50
15 0 31 -9 40 -24z"/>
<path d="M6640 726 c0 -9 6 -16 13 -16 16 0 14 -223 -2 -228 -6 -2 -11 -10
-11 -18 0 -10 12 -14 39 -14 45 0 61 15 36 33 -13 10 -15 26 -13 77 l3 65 34
-88 c24 -61 39 -87 49 -85 8 2 29 41 48 88 l33 85 0 -72 c1 -60 -2 -73 -15
-73 -9 0 -14 -6 -12 -12 3 -8 26 -14 56 -16 42 -2 52 0 52 12 0 9 -4 16 -10
16 -6 0 -10 45 -10 115 0 113 0 115 23 115 20 0 27 -14 66 -131 33 -100 46
-129 59 -127 10 2 29 45 57 128 38 116 44 125 68 128 l27 3 0 -111 c0 -89 -3
-112 -15 -116 -8 -4 -15 -12 -15 -20 0 -10 14 -14 49 -14 52 0 76 16 47 32
-23 13 -24 228 -1 228 8 0 15 7 15 15 0 12 -16 15 -88 15 -92 0 -109 -5 -92
-25 7 -9 2 -35 -17 -86 l-27 -73 -23 69 c-13 38 -20 78 -17 91 6 24 6 24 -83
24 l-90 0 -26 -67 c-14 -38 -31 -81 -37 -98 -12 -30 -12 -29 -50 65 l-38 95
-41 3 c-32 2 -41 0 -41 -12z"/>
<path d="M7320 725 c0 -8 5 -15 10 -15 6 0 10 -45 10 -115 0 -70 -4 -115 -10
-115 -5 0 -10 -7 -10 -15 0 -11 11 -15 39 -15 42 0 64 16 37 26 -13 5 -16 24
-16 98 l0 91 71 -107 c40 -60 78 -108 85 -108 11 0 14 27 14 129 0 134 3 143
43 133 15 -4 17 -18 17 -113 0 -90 -3 -110 -16 -117 -10 -6 -14 -14 -9 -22 5
-9 30 -11 85 -8 123 7 167 53 158 165 -4 49 -9 60 -41 90 l-37 33 -130 0
c-109 0 -130 -2 -130 -15 0 -8 5 -15 10 -15 6 0 10 -29 10 -67 l0 -67 -57 82
c-54 79 -58 82 -95 82 -27 0 -38 -4 -38 -15z m425 -40 c21 -20 25 -34 25 -83
0 -76 -25 -112 -76 -112 l-34 0 0 103 c0 57 3 107 7 110 14 15 55 6 78 -18z"/>
<path d="M10734 598 c-26 -79 -49 -150 -52 -158 -4 -11 -2 -12 7 -4 6 5 31 68
55 140 24 71 47 137 51 147 4 9 3 17 -3 17 -6 0 -32 -64 -58 -142z"/>
<path d="M12527 724 c-14 -14 -7 -35 11 -32 9 2 17 10 17 17 0 16 -18 25 -28
15z"/>
<path d="M13167 724 c-14 -14 -7 -35 11 -32 9 2 17 10 17 17 0 16 -18 25 -28
15z"/>
<path d="M10257 699 c-48 -8 -59 -19 -18 -19 l32 0 -3 -102 c-3 -100 -4 -103
-25 -100 -13 2 -23 -2 -23 -7 0 -7 24 -11 60 -11 35 0 60 4 60 10 0 6 -8 10
-17 8 -16 -3 -19 10 -23 112 l-5 115 -38 -6z"/>
<path d="M10423 686 c-26 -23 -28 -29 -28 -101 0 -72 2 -78 28 -101 76 -65
159 17 137 136 -15 83 -81 114 -137 66z m83 -7 c29 -32 27 -160 -3 -190 -28
-28 -50 -19 -70 28 -18 45 -13 121 11 157 20 32 37 33 62 5z"/>
<path d="M10606 688 c-31 -44 -12 -124 31 -134 29 -8 59 17 68 55 6 30 -9 81
-28 93 -23 15 -56 8 -71 -14z m64 -7 c14 -28 12 -84 -4 -106 -22 -31 -46 -3
-46 54 0 63 28 92 50 52z"/>
<path d="M5138 643 c8 -3 12 -26 12 -66 0 -34 6 -73 13 -87 16 -33 59 -38 86
-11 21 21 21 21 21 1 0 -15 7 -20 27 -20 21 0 24 3 15 12 -7 7 -12 44 -12 95
l0 83 -27 -1 c-16 0 -22 -3 -15 -6 17 -7 15 -98 -4 -134 -11 -22 -21 -29 -37
-27 -20 3 -22 9 -25 86 l-3 82 -32 -1 c-18 0 -26 -3 -19 -6z"/>
<path d="M5363 643 c15 -4 17 -19 17 -128 0 -108 -2 -125 -17 -134 -14 -8 -6
-10 32 -10 28 1 42 3 33 6 -14 3 -18 15 -18 47 l0 42 34 -4 c53 -6 86 31 86
98 0 77 -54 116 -102 73 -17 -15 -18 -15 -18 0 0 13 -8 17 -32 16 -18 -1 -25
-3 -15 -6z m127 -34 c17 -32 12 -97 -10 -119 -21 -21 -29 -23 -54 -14 -12 5
-16 20 -16 59 0 83 50 130 80 74z"/>
<path d="M5591 624 c-31 -39 -29 -107 4 -139 36 -37 86 -34 120 7 23 27 26 39
22 77 -6 56 -34 81 -87 81 -30 0 -43 -6 -59 -26z m100 -6 c20 -38 15 -106 -9
-130 -18 -18 -25 -20 -46 -10 -39 18 -48 109 -14 149 17 21 56 15 69 -9z"/>
<path d="M5788 643 c16 -6 17 -154 0 -171 -9 -9 -4 -12 26 -12 33 0 37 2 26
15 -17 21 -6 121 16 146 13 14 21 16 36 8 18 -10 20 -19 16 -90 l-3 -79 29 0
c23 0 27 3 18 12 -25 25 -5 140 27 158 32 17 43 -10 39 -95 l-3 -75 35 0 c22
0 30 3 22 9 -8 5 -14 33 -15 78 -2 41 -8 77 -16 87 -19 22 -67 20 -83 -3 -14
-20 -14 -20 -26 0 -15 24 -59 25 -84 2 -17 -15 -18 -15 -18 0 0 12 -8 17 -27
16 -16 0 -22 -3 -15 -6z"/>
<path d="M10014 635 c-4 -9 -2 -21 4 -27 15 -15 44 -1 40 19 -4 23 -36 29 -44
8z"/>
<path d="M11052 627 c-32 -34 -31 -109 3 -142 69 -70 174 21 135 116 -15 36
-37 49 -83 49 -22 0 -41 -8 -55 -23z m90 -4 c23 -21 25 -99 2 -131 -33 -48
-84 -10 -84 63 0 71 41 105 82 68z"/>
<path d="M11603 643 c14 -4 17 -17 17 -82 0 -46 -5 -82 -12 -89 -9 -9 -5 -12
18 -12 l30 0 -4 63 c-3 52 -1 66 18 89 18 23 25 26 41 17 18 -9 20 -19 17 -90
l-3 -79 35 0 c23 0 30 3 22 9 -9 5 -14 33 -15 78 -1 42 -7 77 -16 86 -17 22
-59 22 -83 0 -17 -15 -18 -15 -18 0 0 13 -8 17 -32 16 -18 -1 -25 -3 -15 -6z"/>
<path d="M11844 624 c-13 -19 -14 -28 -5 -37 13 -13 27 -1 33 28 2 12 11 20
23 20 16 0 21 -8 23 -37 3 -36 2 -38 -26 -38 -17 0 -40 -9 -53 -19 -20 -16
-22 -23 -14 -47 13 -37 55 -44 83 -14 l19 21 6 -21 c8 -32 51 -24 54 10 1 14
0 18 -3 8 -11 -39 -24 -15 -24 45 0 79 -17 107 -65 107 -26 0 -39 -6 -51 -26z
m76 -92 c0 -28 -24 -55 -46 -50 -25 4 -29 31 -9 52 22 22 55 21 55 -2z"/>
<path d="M12128 643 c9 -3 12 -40 12 -133 0 -93 -3 -130 -12 -133 -7 -3 10 -5
37 -6 40 0 45 2 28 9 -19 8 -23 17 -23 50 0 38 1 40 25 34 40 -10 73 4 91 38
19 38 14 101 -12 129 -24 26 -68 25 -87 -3 l-16 -23 0 23 c-1 17 -7 22 -28 21
-16 0 -22 -3 -15 -6z m131 -50 c6 -20 7 -48 4 -64 -10 -53 -62 -76 -86 -38
-14 23 1 107 23 129 26 26 47 16 59 -27z"/>
<path d="M12348 643 c16 -6 17 -154 0 -171 -9 -9 -2 -12 33 -12 35 1 40 3 27
11 -31 17 -19 140 15 161 17 10 27 0 27 -28 0 -16 5 -24 13 -22 17 6 21 36 7
53 -16 20 -39 19 -62 -2 -17 -15 -18 -15 -18 0 0 12 -8 17 -27 16 -16 0 -22
-3 -15 -6z"/>
<path d="M12508 643 c8 -3 12 -31 12 -88 0 -57 -4 -85 -12 -88 -7 -3 7 -5 32
-5 25 0 39 2 33 5 -9 3 -13 32 -13 94 l0 89 -32 -1 c-18 0 -27 -3 -20 -6z"/>
<path d="M12623 643 c14 -4 17 -17 17 -82 0 -46 -5 -82 -12 -89 -9 -9 -5 -12
19 -12 30 0 31 1 26 39 -11 84 19 151 58 131 16 -9 19 -22 19 -78 0 -40 -5
-73 -12 -80 -9 -9 -4 -12 26 -12 33 0 37 2 26 15 -18 22 -8 120 15 145 14 15
22 17 37 9 18 -10 20 -19 16 -90 l-3 -79 29 0 c23 0 27 3 18 12 -7 7 -12 41
-12 83 0 42 -5 76 -12 83 -19 19 -65 14 -82 -9 l-14 -21 -11 21 c-14 26 -57
28 -83 4 -17 -15 -18 -15 -18 0 0 13 -8 17 -32 16 -18 -1 -25 -3 -15 -6z"/>
<path d="M12975 625 c-54 -53 -17 -164 55 -165 28 0 70 25 70 42 0 6 -11 1
-24 -11 -33 -31 -70 -22 -85 20 -17 48 -16 49 49 49 56 0 60 2 60 23 0 65 -77
91 -125 42z m83 3 c7 -7 12 -22 12 -35 0 -21 -5 -23 -44 -23 -41 0 -44 2 -39
23 12 45 44 62 71 35z"/>
<path d="M13148 643 c8 -3 12 -31 12 -88 0 -57 -4 -85 -12 -88 -7 -3 7 -5 32
-5 25 0 39 2 33 5 -9 3 -13 32 -13 94 l0 89 -32 -1 c-18 0 -27 -3 -20 -6z"/>
<path d="M13263 643 c14 -4 17 -17 17 -82 0 -46 -5 -82 -12 -89 -9 -9 -2 -12
33 -12 36 1 41 3 26 11 -16 9 -19 22 -17 78 4 102 4 101 -32 100 -18 -1 -25
-3 -15 -6z"/>
<path d="M13327 643 c-13 -12 -7 -20 16 -19 15 1 22 -5 22 -18 0 -25 21 -32
29 -11 9 25 -12 55 -38 55 -12 0 -26 -3 -29 -7z"/>
<path d="M13442 638 c-16 -16 -16 -61 1 -56 6 3 13 15 15 27 8 49 62 32 62
-20 0 -26 -3 -29 -35 -29 -36 0 -75 -28 -75 -54 0 -21 28 -46 51 -46 10 0 28
9 38 19 20 20 20 20 26 0 4 -10 14 -19 24 -19 22 0 47 27 36 38 -4 4 -10 1
-12 -5 -12 -34 -23 -6 -23 56 0 50 -4 74 -16 85 -18 19 -75 21 -92 4z m65
-120 c-14 -35 -44 -49 -58 -26 -5 7 -9 16 -9 20 0 15 33 38 56 38 23 0 24 -1
11 -32z"/>
<path d="M13845 625 c-54 -53 -17 -164 55 -165 28 0 70 25 70 42 0 6 -11 1
-24 -11 -18 -17 -32 -22 -50 -17 -59 15 -55 161 4 161 20 0 26 -6 28 -27 4
-34 32 -38 32 -5 0 32 -18 47 -57 47 -23 0 -42 -8 -58 -25z"/>
<path d="M14021 624 c-31 -39 -29 -107 4 -139 46 -47 125 -24 141 40 10 39 -5
93 -29 110 -35 25 -92 19 -116 -11z m105 -20 c27 -63 -7 -145 -54 -130 -27 9
-46 59 -39 102 8 45 23 64 54 64 18 0 28 -9 39 -36z"/>
<path d="M14218 643 c16 -6 17 -154 0 -171 -9 -9 -4 -12 26 -12 33 0 37 2 26
15 -9 10 -11 33 -7 68 8 80 0 107 -32 106 -14 0 -20 -3 -13 -6z"/>
<path d="M14282 638 c-21 -21 -13 -29 12 -13 37 24 48 1 44 -90 l-3 -75 35 0
c29 1 32 2 18 11 -32 18 -15 139 21 159 32 17 43 -10 39 -95 l-3 -75 35 1 c19
0 29 3 23 6 -9 3 -13 26 -13 66 0 80 -16 111 -57 115 -23 2 -35 -2 -45 -17
-12 -19 -12 -19 -26 0 -15 21 -61 26 -80 7z"/>
<path d="M14548 643 c9 -3 12 -40 12 -133 0 -93 -3 -130 -12 -133 -7 -3 10 -5
37 -5 28 0 42 2 33 5 -14 3 -18 15 -18 48 0 38 2 43 20 38 55 -14 100 31 100
100 0 40 -33 87 -60 87 -26 0 -50 -10 -50 -21 0 -6 8 -5 19 1 40 21 72 -51 51
-114 -12 -37 -35 -51 -64 -40 -15 6 -17 18 -16 73 3 103 4 101 -32 100 -18 0
-27 -3 -20 -6z"/>
<path d="M14768 643 c8 -3 12 -31 12 -88 0 -57 -4 -85 -12 -88 -7 -3 7 -6 31
-6 40 -1 43 0 26 13 -15 11 -17 22 -12 71 8 79 57 129 57 59 0 -16 5 -24 13
-22 17 6 21 36 7 53 -16 20 -39 19 -62 -2 -17 -15 -18 -15 -18 0 0 12 -8 17
-27 16 -16 0 -22 -3 -15 -6z"/>
<path d="M14945 634 c-18 -18 -17 -45 2 -51 7 -3 13 8 15 24 2 22 8 28 28 28
22 0 25 -5 28 -37 3 -37 2 -38 -31 -38 -37 0 -67 -25 -67 -56 0 -41 54 -60 80
-29 12 14 15 14 31 -1 25 -22 54 -14 56 16 1 16 0 18 -3 7 -12 -40 -29 -8 -32
58 -2 38 -8 75 -14 82 -15 18 -73 16 -93 -3z m75 -98 c0 -24 -36 -60 -53 -53
-20 7 -22 38 -5 55 17 17 58 15 58 -2z"/>
<path d="M10798 609 c-24 -13 -33 -72 -18 -109 36 -86 133 -12 100 76 -17 43
-45 55 -82 33z m52 -18 c14 -28 12 -84 -4 -106 -22 -31 -46 -3 -46 54 0 63 28
92 50 52z"/>
<path d="M10014 495 c-4 -9 -2 -21 4 -27 15 -15 44 -1 40 19 -4 23 -36 29 -44
8z"/>
</g>
</svg>
