<?xml version="1.0" standalone="no"?>
<!DOCTYPE svg PUBLIC "-//W3C//DTD SVG 20010904//EN"
 "http://www.w3.org/TR/2001/REC-SVG-20010904/DTD/svg10.dtd">
<svg version="1.0" xmlns="http://www.w3.org/2000/svg"
 width="1998.000000pt" height="120.000000pt" viewBox="0 0 1998.000000 120.000000"
 preserveAspectRatio="xMidYMid meet">

<g transform="translate(0.000000,120.000000) scale(0.100000,-0.100000)"
fill="#000000" stroke="none">
<path d="M186 808 c-72 -71 -186 -197 -186 -208 0 -11 193 -219 216 -233 20
-12 54 11 54 36 0 14 -31 55 -81 110 l-81 87 81 89 c79 87 93 115 69 139 -19
19 -36 14 -72 -20z"/>
<path d="M426 728 c-58 -62 -106 -119 -106 -126 0 -16 184 -218 212 -233 25
-13 58 6 58 33 0 13 -32 54 -80 104 -44 46 -80 89 -80 95 0 6 36 48 80 93 83
85 97 116 61 136 -11 5 -24 10 -30 10 -5 0 -57 -51 -115 -112z"/>
<path d="M747 731 c-68 -69 -107 -116 -107 -129 0 -22 174 -213 213 -233 21
-12 57 13 57 39 0 8 -39 54 -87 103 l-87 89 87 89 c48 49 87 95 87 103 0 16
-31 48 -46 48 -6 0 -58 -49 -117 -109z"/>
<path d="M1158 828 c-37 -31 -208 -218 -208 -229 0 -16 220 -239 236 -239 7 0
20 10 28 22 20 28 12 41 -81 139 l-75 79 77 82 c94 102 98 109 79 136 -17 25
-33 28 -56 10z"/>
<path d="M1378 728 c-60 -62 -108 -119 -108 -126 0 -16 195 -228 217 -236 22
-9 53 12 53 35 0 12 -34 57 -80 107 -44 48 -80 89 -80 93 0 3 36 45 80 92 46
49 80 94 80 106 0 18 -25 41 -47 41 -4 0 -56 -50 -115 -112z"/>
<path d="M18332 828 c-24 -24 -10 -53 69 -140 l81 -88 -81 -87 c-49 -53 -81
-96 -81 -109 0 -29 26 -49 48 -38 25 13 222 220 222 234 0 6 -37 51 -81 98
-140 149 -150 157 -177 130z"/>
<path d="M18647 822 c-10 -10 -17 -24 -17 -31 0 -6 39 -52 87 -102 l86 -89
-86 -89 c-48 -49 -87 -95 -87 -103 0 -8 9 -23 19 -32 26 -24 38 -17 154 102
65 67 97 107 97 122 0 16 -34 57 -107 131 -59 60 -112 109 -118 109 -7 0 -19
-8 -28 -18z"/>
<path d="M18968 829 c-35 -20 -20 -52 69 -141 l88 -88 -88 -88 c-91 -91 -105
-122 -66 -142 16 -9 26 -8 43 4 35 23 201 205 204 225 3 19 -201 241 -221 241
-7 0 -20 -5 -29 -11z"/>
<path d="M19282 828 c-24 -24 -10 -52 69 -139 l81 -89 -81 -89 c-47 -51 -81
-97 -81 -109 0 -25 34 -46 54 -35 23 13 216 222 216 233 0 6 -32 46 -71 88
-142 153 -160 167 -187 140z"/>
<path d="M19597 822 c-10 -10 -17 -24 -17 -30 0 -6 39 -52 86 -102 l87 -91
-87 -88 c-47 -49 -86 -95 -86 -103 0 -15 30 -48 45 -48 4 0 57 48 116 107 83
81 109 113 109 132 0 19 -27 53 -107 134 -58 59 -112 107 -118 107 -7 0 -19
-8 -28 -18z"/>
<path d="M7471 796 c-24 -38 -26 -53 -9 -58 8 -3 -1 -39 -29 -114 -32 -85 -45
-109 -59 -109 -13 0 -23 12 -32 38 -12 34 -11 41 2 56 26 29 20 86 -10 110
-22 17 -41 21 -105 21 -64 0 -79 -3 -79 -15 0 -8 7 -15 15 -15 12 0 15 -19 15
-110 0 -89 -3 -112 -15 -116 -8 -4 -15 -13 -15 -21 0 -11 13 -13 57 -11 57 3
82 21 43 31 -16 4 -20 13 -20 46 0 28 5 44 15 47 23 9 45 -15 45 -50 0 -17 7
-42 16 -54 13 -19 24 -22 75 -22 45 0 59 3 59 14 0 8 -4 17 -10 21 -6 3 -5 15
2 30 9 20 18 25 50 25 31 0 40 -5 47 -22 5 -13 5 -27 0 -33 -5 -5 -9 -15 -9
-23 0 -17 102 -13 108 6 2 6 -3 12 -11 12 -9 0 -31 47 -61 130 -34 93 -52 130
-64 130 -12 0 -9 7 11 28 15 15 27 36 27 45 0 30 -37 19 -59 -17z m-177 -102
c21 -21 20 -47 -3 -68 -30 -27 -55 -17 -59 23 -2 18 -1 39 2 47 7 19 41 18 60
-2z m205 -101 c1 -7 -8 -13 -19 -13 -23 0 -25 12 -8 43 11 21 11 21 19 2 4
-11 8 -26 8 -32z"/>
<path d="M5813 742 c-86 -3 -116 -14 -78 -28 23 -9 22 -234 -1 -234 -9 0 -14
-6 -12 -12 3 -8 28 -14 66 -16 51 -2 62 0 62 13 0 8 -9 15 -20 15 -17 0 -20 7
-20 50 0 49 1 50 30 50 18 0 33 -6 36 -15 4 -8 12 -15 20 -15 10 0 14 13 14
44 0 48 -17 70 -32 42 -5 -9 -22 -16 -38 -16 -29 0 -30 2 -30 46 l0 45 38 -3
c30 -2 38 -7 40 -25 5 -32 32 -30 32 2 0 16 6 25 15 25 23 0 22 -215 -1 -228
-30 -17 -4 -32 52 -32 41 0 54 4 54 15 0 8 -7 15 -15 15 -11 0 -15 12 -15 50
0 36 4 50 14 50 21 0 36 -24 43 -67 3 -21 10 -43 15 -50 6 -7 54 -12 142 -12
l134 -1 -6 47 c-3 27 -9 50 -13 51 -5 2 -9 26 -9 53 0 37 -4 49 -15 49 -8 0
-15 -7 -15 -15 0 -10 -11 -15 -35 -15 -35 0 -35 0 -35 45 l0 45 40 0 c36 0 40
-2 40 -25 0 -18 5 -25 19 -25 15 0 21 8 24 38 l4 37 1 -42 c2 -50 29 -61 34
-15 2 19 9 28 26 30 22 3 22 2 22 -112 0 -109 -1 -116 -20 -116 -11 0 -20 -7
-20 -15 0 -12 14 -15 70 -15 56 0 70 3 70 15 0 8 -9 15 -20 15 -19 0 -20 7
-20 115 0 106 2 115 19 115 13 0 20 -9 25 -30 3 -18 12 -30 21 -30 10 0 15 10
15 30 0 17 5 30 10 30 6 0 10 -45 10 -115 0 -70 -4 -115 -10 -115 -5 0 -10 -7
-10 -15 0 -12 18 -15 104 -15 l104 0 -6 48 c-3 26 -9 49 -13 50 -5 2 -9 26 -9
53 0 37 -4 49 -15 49 -8 0 -15 -7 -15 -15 0 -10 -11 -15 -35 -15 -35 0 -35 0
-35 45 l0 45 40 0 c36 0 40 -2 40 -25 0 -18 5 -25 20 -25 17 0 20 7 20 43 l0
42 -223 -2 c-431 -3 -407 -2 -407 -18 0 -8 5 -15 10 -15 6 0 10 -45 9 -117 0
-85 -3 -111 -10 -94 -6 15 -15 21 -24 17 -10 -4 -15 1 -15 15 0 11 -5 29 -10
40 -8 15 -6 26 12 49 17 24 20 35 12 57 -21 60 -84 73 -321 65z m251 -48 c31
-30 9 -84 -35 -84 -16 0 -19 7 -19 50 0 43 3 50 19 50 11 0 27 -7 35 -16z
m236 -129 c0 -8 5 -15 11 -15 6 0 9 -12 7 -27 -3 -25 -7 -28 -45 -31 l-43 -3
0 45 c0 46 0 46 35 46 24 0 35 -5 35 -15z m430 0 c0 -8 5 -15 11 -15 6 0 9
-12 7 -27 -3 -25 -7 -28 -45 -31 l-43 -3 0 45 c0 46 0 46 35 46 24 0 35 -5 35
-15z"/>
<path d="M6984 740 c-32 -13 -72 -67 -80 -105 -14 -75 19 -151 76 -175 65 -27
160 13 160 69 0 9 5 22 11 28 20 20 -1 33 -52 33 -43 0 -50 -3 -47 -17 2 -10
10 -17 16 -15 7 1 12 -10 12 -28 0 -64 -86 -59 -110 6 -16 42 -11 106 10 142
16 26 26 32 55 32 29 0 39 -5 53 -30 25 -44 42 -38 42 14 0 41 -19 74 -28 48
-2 -8 -11 -8 -28 -1 -30 11 -61 11 -90 -1z"/>
<path d="M7604 716 c3 -16 6 -37 6 -47 0 -30 28 -22 32 9 2 19 9 28 26 30 22
3 22 2 22 -108 0 -103 -2 -112 -20 -117 -11 -3 -20 -12 -20 -20 0 -19 131 -15
138 5 2 7 -5 12 -17 12 -20 0 -21 5 -21 115 0 106 2 115 19 115 13 0 20 -9 25
-30 3 -18 12 -30 21 -30 10 0 15 10 15 30 0 17 5 30 10 30 6 0 10 -45 10 -115
0 -70 -4 -115 -10 -115 -5 0 -10 -7 -10 -15 0 -11 12 -15 49 -15 50 0 76 15
47 26 -25 10 -23 222 1 240 10 7 15 15 12 18 -3 4 -81 7 -173 9 l-168 2 6 -29z"/>
<path d="M8010 743 c-49 -18 -72 -78 -46 -118 9 -14 38 -36 65 -49 41 -21 61
-41 61 -62 0 -2 -11 -11 -24 -19 -31 -21 -73 -5 -82 30 -11 45 -34 30 -34 -22
l0 -48 61 -2 c92 -4 129 21 129 86 0 32 -27 60 -86 89 -46 23 -61 47 -43 68
20 25 58 17 77 -16 26 -46 44 -39 40 17 l-3 47 -50 2 c-27 1 -57 0 -65 -3z"/>
<path d="M12630 733 c0 -10 -14 -26 -30 -35 -24 -14 -30 -24 -30 -52 0 -28 7
-40 30 -58 26 -19 30 -28 30 -70 0 -26 -4 -48 -9 -48 -15 0 -32 28 -29 47 2
11 -3 18 -12 18 -9 0 -15 -9 -15 -25 0 -18 9 -29 32 -40 19 -9 33 -23 33 -33
0 -10 5 -15 10 -12 6 4 8 10 5 15 -3 4 11 17 30 28 20 13 37 32 41 48 6 24 2
33 -28 58 -28 25 -36 40 -39 74 -3 29 -1 42 8 42 7 0 14 -6 14 -12 1 -7 2 -19
3 -27 2 -20 22 -25 29 -6 10 23 -2 44 -35 61 -16 8 -26 19 -23 24 3 5 1 11 -5
15 -5 3 -10 -2 -10 -12z m0 -83 c0 -30 -3 -38 -14 -34 -18 7 -26 37 -14 58 16
28 28 18 28 -24z m44 -106 c9 -8 16 -19 16 -24 0 -9 -39 -58 -40 -50 -5 24 -4
90 2 90 4 0 14 -7 22 -16z"/>
<path d="M11943 729 c11 -6 17 -22 17 -44 0 -34 -1 -35 -39 -35 -56 0 -83 -25
-88 -86 -8 -82 47 -129 105 -88 20 14 22 14 22 0 0 -11 9 -16 28 -15 15 0 21
3 15 6 -10 3 -13 41 -13 139 l0 134 -32 0 c-27 -1 -30 -2 -15 -11z m5 -101 c7
-7 12 -33 12 -58 0 -99 -75 -127 -94 -34 -15 69 42 132 82 92z"/>
<path d="M11105 721 c-8 -15 3 -31 21 -31 9 0 14 7 12 17 -4 20 -24 28 -33 14z"/>
<path d="M12343 723 c15 -4 17 -18 17 -122 0 -78 -4 -121 -12 -129 -9 -9 -3
-12 30 -12 23 0 42 4 42 10 0 5 -6 9 -12 7 -9 -1 -14 15 -16 51 -3 59 11 73
54 54 17 -9 24 -20 24 -41 0 -70 44 -109 70 -61 7 14 7 20 0 20 -5 0 -10 -4
-10 -10 0 -5 -4 -10 -10 -10 -5 0 -10 15 -10 33 0 18 -7 42 -15 54 -14 21 -14
24 5 43 27 27 26 74 -2 100 -18 17 -34 20 -97 19 -42 -1 -68 -3 -58 -6z m137
-35 c13 -25 13 -31 0 -55 -12 -22 -24 -29 -53 -31 l-37 -3 0 61 0 61 37 -3
c29 -2 41 -9 53 -30z"/>
<path d="M14014 719 c-9 -15 11 -33 30 -26 9 4 13 13 10 22 -7 17 -30 20 -40
4z"/>
<path d="M13045 712 c-27 -2 -53 -6 -56 -10 -4 -4 -9 -31 -13 -59 l-7 -53 31
0 c52 0 70 -16 70 -61 0 -32 -4 -41 -24 -51 -33 -14 -54 -5 -58 27 -4 32 -22
34 -26 3 -8 -50 80 -67 123 -23 14 13 25 35 25 48 0 34 -43 70 -85 71 -35 1
-36 2 -33 36 3 34 4 35 51 38 31 2 50 8 54 18 7 19 7 20 -52 16z"/>
<path d="M12807 700 c-49 -9 -59 -20 -19 -20 l32 0 0 -104 0 -103 -25 5 c-15
2 -25 0 -25 -7 0 -7 24 -11 66 -11 44 0 63 4 59 11 -4 6 -13 8 -21 5 -12 -4
-14 16 -14 114 0 66 -3 119 -7 119 -5 -1 -25 -5 -46 -9z"/>
<path d="M13173 686 c-26 -23 -28 -29 -28 -101 0 -72 2 -78 28 -101 15 -13 41
-24 56 -24 81 0 116 156 50 226 -29 31 -70 31 -106 0z m83 -7 c15 -17 19 -36
19 -95 0 -63 -3 -77 -23 -96 -18 -18 -26 -20 -40 -12 -42 26 -52 147 -17 201
19 29 36 29 61 2z"/>
<path d="M8278 643 c9 -3 12 -40 12 -133 0 -93 -3 -130 -12 -133 -7 -3 10 -5
37 -6 41 0 46 2 27 10 -19 7 -23 15 -20 46 3 33 6 38 27 35 61 -9 101 31 101
101 0 73 -77 116 -113 65 l-16 -23 0 23 c-1 17 -7 22 -28 21 -16 0 -22 -3 -15
-6z m131 -46 c14 -39 5 -91 -20 -113 -26 -23 -69 -5 -69 28 1 106 62 164 89
85z"/>
<path d="M8512 638 c-16 -16 -16 -61 1 -56 6 3 13 15 15 27 8 51 62 28 62 -26
0 -20 -5 -23 -35 -23 -36 0 -75 -28 -75 -54 0 -21 28 -46 51 -46 10 0 28 9 38
19 19 19 19 19 24 0 7 -25 43 -25 57 1 7 14 7 20 0 20 -5 0 -10 -4 -10 -10 0
-5 -4 -10 -10 -10 -6 0 -10 28 -10 63 0 78 -17 107 -64 107 -17 0 -37 -5 -44
-12z m68 -106 c0 -28 -24 -55 -46 -50 -25 4 -29 31 -9 52 22 22 55 21 55 -2z"/>
<path d="M8688 643 c8 -3 12 -31 12 -88 0 -57 -4 -85 -12 -88 -7 -3 10 -5 37
-5 28 0 42 2 32 5 -16 4 -18 14 -17 76 3 110 4 107 -32 106 -18 0 -27 -3 -20
-6z"/>
<path d="M8757 644 c-13 -13 -7 -27 6 -15 17 14 27 4 27 -26 0 -15 5 -23 13
-20 6 2 12 17 12 33 0 24 -5 30 -25 32 -14 2 -29 0 -33 -4z"/>
<path d="M8864 624 c-13 -19 -14 -28 -5 -37 13 -13 27 -1 33 28 2 12 11 20 23
20 16 0 21 -8 23 -37 3 -36 2 -38 -25 -38 -38 0 -73 -26 -73 -54 0 -47 54 -63
88 -26 l19 21 6 -21 c8 -32 51 -24 54 10 1 14 0 18 -3 8 -11 -39 -24 -15 -24
45 0 79 -17 107 -65 107 -26 0 -39 -6 -51 -26z m76 -92 c0 -28 -24 -55 -46
-50 -25 4 -29 31 -9 52 22 22 55 21 55 -2z"/>
<path d="M9182 643 c-19 -7 -42 -58 -42 -92 0 -44 44 -91 84 -91 31 0 77 33
64 45 -3 3 -13 -4 -23 -15 -39 -43 -88 -8 -88 63 0 56 17 87 48 87 21 0 25 -5
25 -31 0 -24 4 -30 17 -27 24 4 28 32 8 52 -16 15 -65 20 -93 9z"/>
<path d="M9341 624 c-31 -39 -29 -107 4 -139 46 -47 125 -24 141 40 10 39 -5
93 -29 110 -35 25 -92 19 -116 -11z m105 -21 c18 -43 12 -93 -15 -118 -41 -37
-89 20 -78 91 8 45 23 64 54 64 18 0 28 -9 39 -37z"/>
<path d="M9538 643 c8 -3 12 -31 12 -88 0 -57 -4 -85 -12 -88 -7 -3 5 -6 27
-6 30 -1 36 2 27 11 -25 25 -5 140 27 158 32 17 43 -10 39 -95 l-3 -75 35 0
c25 1 31 3 20 10 -23 13 -12 137 14 155 33 25 44 8 48 -71 2 -41 -1 -79 -6
-85 -6 -5 5 -9 30 -8 21 0 33 3 27 6 -9 3 -13 27 -13 72 0 80 -17 111 -60 111
-20 0 -33 -7 -41 -21 l-11 -21 -14 21 c-20 29 -68 28 -88 -1 l-16 -22 0 22 c0
18 -6 22 -27 21 -16 0 -22 -3 -15 -6z"/>
<path d="M9868 643 c9 -3 12 -40 12 -133 0 -93 -3 -130 -12 -133 -7 -3 10 -5
37 -5 28 0 42 2 33 5 -14 3 -18 15 -18 47 l0 42 34 -4 c51 -6 86 32 86 91 0
50 -29 97 -60 97 -26 0 -50 -10 -50 -21 0 -6 8 -5 19 1 41 21 72 -45 52 -110
-12 -40 -35 -55 -65 -44 -15 6 -17 18 -16 73 3 103 4 101 -32 100 -18 0 -27
-3 -20 -6z"/>
<path d="M10088 643 c8 -3 12 -31 12 -88 0 -57 -4 -85 -12 -88 -7 -3 6 -6 30
-6 23 -1 42 4 42 9 0 6 -6 9 -12 8 -21 -5 -15 118 7 142 21 24 35 18 35 -16 0
-16 5 -24 13 -22 17 6 21 36 7 53 -16 20 -39 19 -62 -2 -17 -15 -18 -15 -18 0
0 12 -8 17 -27 16 -16 0 -22 -3 -15 -6z"/>
<path d="M10265 634 c-18 -18 -17 -45 2 -51 7 -3 13 8 15 24 2 22 8 28 28 28
22 0 25 -5 28 -37 3 -37 2 -38 -31 -38 -37 0 -67 -25 -67 -56 0 -41 54 -60 80
-29 12 14 15 14 31 -1 25 -22 54 -14 56 16 1 16 0 18 -3 7 -12 -40 -29 -8 -32
58 -2 38 -8 75 -14 82 -15 18 -73 16 -93 -3z m75 -98 c0 -24 -36 -60 -53 -53
-20 7 -22 38 -5 55 17 17 58 15 58 -2z"/>
<path d="M10456 631 c-29 -32 -17 -63 37 -88 52 -25 60 -48 23 -65 -31 -13
-54 -5 -66 24 -9 23 -9 23 -9 -3 -1 -29 14 -39 58 -39 34 0 61 28 61 64 0 22
-8 30 -46 46 -37 16 -45 24 -42 42 4 33 48 31 66 -2 l13 -25 -3 30 c-3 26 -7
30 -39 33 -25 2 -40 -3 -53 -17z"/>
<path d="M10730 635 c-14 -17 -10 -47 7 -52 7 -3 13 8 15 24 2 18 10 29 22 31
23 5 36 -14 36 -50 0 -25 -4 -28 -34 -28 -19 0 -42 -7 -50 -16 -19 -18 -21
-55 -4 -72 23 -23 78 -8 78 22 0 6 -5 5 -12 -2 -21 -21 -48 -14 -48 11 0 29
18 47 47 47 19 0 22 -4 18 -23 -4 -15 1 -32 14 -48 16 -20 23 -22 38 -13 10 6
18 17 19 25 1 9 0 10 -3 2 -3 -7 -11 -13 -19 -13 -11 0 -14 15 -14 66 0 86
-10 104 -59 104 -22 0 -44 -6 -51 -15z"/>
<path d="M10925 625 c-53 -52 -18 -165 50 -165 32 0 61 14 69 35 4 11 -2 10
-23 -6 -39 -29 -67 -18 -82 31 -20 66 12 133 55 117 9 -4 16 -17 16 -32 0 -16
6 -25 15 -25 18 0 20 41 3 58 -21 21 -77 14 -103 -13z"/>
<path d="M11088 643 c8 -3 12 -31 12 -88 0 -57 -4 -85 -12 -88 -7 -3 7 -5 32
-5 25 0 39 2 33 5 -9 3 -13 32 -13 94 l0 89 -32 -1 c-18 0 -27 -3 -20 -6z"/>
<path d="M11203 643 c14 -4 17 -17 17 -82 0 -46 -5 -82 -12 -89 -9 -9 -4 -12
26 -12 33 0 37 2 26 15 -18 22 -8 120 15 145 13 15 22 17 36 9 16 -8 19 -21
19 -77 0 -40 -5 -73 -12 -80 -9 -9 -4 -12 26 -12 33 0 37 2 26 15 -17 21 -6
121 16 146 13 14 21 16 36 8 18 -10 20 -19 16 -90 l-3 -79 29 0 c23 0 27 3 18
12 -7 7 -12 41 -12 83 0 42 -5 76 -12 83 -19 19 -65 14 -82 -9 l-14 -21 -11
21 c-14 26 -57 28 -83 4 -17 -15 -18 -15 -18 0 0 13 -8 17 -32 16 -18 -1 -25
-3 -15 -6z"/>
<path d="M11556 631 c-11 -12 -16 -27 -12 -36 7 -19 30 -15 32 6 3 37 5 40 27
37 18 -2 23 -10 25 -40 3 -36 2 -38 -25 -38 -38 0 -73 -26 -73 -54 0 -47 52
-62 86 -25 l18 20 8 -21 c11 -31 52 -23 55 10 1 14 0 18 -3 8 -11 -37 -24 -16
-24 40 0 78 -16 106 -61 110 -25 2 -40 -3 -53 -17z m74 -98 c-1 -27 -26 -55
-47 -51 -24 5 -29 39 -7 55 26 19 54 16 54 -4z"/>
<path d="M12082 643 c-19 -7 -42 -58 -42 -93 0 -42 47 -90 88 -90 27 0 62 25
62 45 0 5 -9 -1 -20 -13 -12 -12 -29 -22 -39 -22 -25 0 -51 32 -51 63 0 26 2
27 55 27 54 0 55 1 55 28 0 48 -55 76 -108 55z m66 -15 c7 -7 12 -22 12 -35 0
-20 -5 -23 -40 -23 -43 0 -50 13 -30 51 12 21 40 25 58 7z"/>
<path d="M13458 643 c8 -3 12 -31 12 -88 0 -57 -4 -85 -12 -88 -7 -3 10 -5 37
-5 28 0 42 2 33 5 -15 4 -18 16 -18 67 0 40 6 69 16 84 18 27 34 20 34 -14 0
-13 4 -24 9 -24 16 0 23 20 17 46 -7 26 -43 33 -64 12 -9 -9 -12 -9 -12 0 0 7
-13 12 -32 11 -18 0 -27 -3 -20 -6z"/>
<path d="M13652 643 c-19 -7 -42 -58 -42 -92 0 -44 44 -91 84 -91 19 0 40 8
49 18 26 29 20 38 -7 13 -34 -32 -72 -22 -84 22 -5 17 -7 35 -5 40 2 4 29 7
59 7 50 0 54 2 54 23 0 38 -27 67 -63 66 -18 0 -38 -3 -45 -6z m66 -15 c7 -7
12 -22 12 -35 0 -21 -5 -23 -45 -23 -44 0 -44 0 -34 26 5 15 12 31 15 35 8 13
38 11 52 -3z"/>
<path d="M13825 634 c-18 -18 -17 -45 2 -51 7 -3 13 8 15 24 2 22 8 28 28 28
22 0 25 -5 28 -37 3 -37 2 -38 -31 -38 -37 0 -67 -25 -67 -56 0 -42 48 -58 80
-29 15 14 18 14 30 0 18 -22 48 -19 55 6 4 11 4 23 1 26 -3 4 -6 -1 -6 -10 0
-10 -7 -17 -15 -17 -12 0 -15 14 -15 66 0 36 -5 74 -10 85 -13 24 -72 26 -95
3z m75 -97 c0 -22 -31 -57 -51 -57 -22 0 -27 38 -7 58 16 16 58 15 58 -1z"/>
<path d="M14003 643 c14 -4 17 -17 17 -82 0 -46 -5 -82 -12 -89 -9 -9 -3 -12
27 -12 30 0 36 3 27 12 -7 7 -12 44 -12 95 l0 83 -32 -1 c-18 -1 -25 -3 -15
-6z"/>
<path d="M14124 625 c-22 -34 -10 -60 37 -79 46 -18 59 -41 36 -63 -21 -21
-62 -10 -72 19 l-8 23 -4 -24 c-6 -28 10 -41 54 -41 30 0 73 31 73 53 0 23
-23 46 -60 61 -33 13 -41 21 -38 39 2 17 10 22 33 22 23 0 31 -6 36 -25 6 -23
7 -22 8 8 1 31 0 32 -39 32 -31 0 -43 -5 -56 -25z"/>
</g>
</svg>
