<?xml version="1.0" standalone="no"?>
<!DOCTYPE svg PUBLIC "-//W3C//DTD SVG 20010904//EN"
 "http://www.w3.org/TR/2001/REC-SVG-20010904/DTD/svg10.dtd">
<svg version="1.0" xmlns="http://www.w3.org/2000/svg"
 width="1998.000000pt" height="120.000000pt" viewBox="0 0 1998.000000 120.000000"
 preserveAspectRatio="xMidYMid meet">

<g transform="translate(0.000000,120.000000) scale(0.100000,-0.100000)"
fill="#000000" stroke="none">
<path d="M186 808 c-72 -71 -186 -197 -186 -208 0 -11 193 -219 216 -233 20
-12 54 11 54 36 0 14 -31 55 -81 110 l-81 87 81 89 c79 87 93 115 69 139 -19
19 -36 14 -72 -20z"/>
<path d="M426 728 c-58 -62 -106 -119 -106 -126 0 -16 184 -218 212 -233 25
-13 58 6 58 33 0 13 -32 54 -80 104 -44 46 -80 89 -80 95 0 6 36 48 80 93 83
85 97 116 61 136 -11 5 -24 10 -30 10 -5 0 -57 -51 -115 -112z"/>
<path d="M747 731 c-68 -69 -107 -116 -107 -129 0 -22 174 -213 213 -233 21
-12 57 13 57 39 0 8 -39 54 -87 103 l-87 89 87 89 c48 49 87 95 87 103 0 16
-31 48 -46 48 -6 0 -58 -49 -117 -109z"/>
<path d="M1158 828 c-37 -31 -208 -218 -208 -229 0 -16 220 -239 236 -239 7 0
20 10 28 22 20 28 12 41 -81 139 l-75 79 77 82 c94 102 98 109 79 136 -17 25
-33 28 -56 10z"/>
<path d="M1378 728 c-60 -62 -108 -119 -108 -126 0 -16 195 -228 217 -236 22
-9 53 12 53 35 0 12 -34 57 -80 107 -44 48 -80 89 -80 93 0 3 36 45 80 92 46
49 80 94 80 106 0 18 -25 41 -47 41 -4 0 -56 -50 -115 -112z"/>
<path d="M18332 828 c-24 -24 -10 -53 69 -140 l81 -88 -81 -87 c-49 -53 -81
-96 -81 -109 0 -29 26 -49 48 -38 25 13 222 220 222 234 0 6 -37 51 -81 98
-140 149 -150 157 -177 130z"/>
<path d="M18647 822 c-10 -10 -17 -24 -17 -31 0 -6 39 -52 87 -102 l86 -89
-86 -89 c-48 -49 -87 -95 -87 -103 0 -8 9 -23 19 -32 26 -24 38 -17 154 102
65 67 97 107 97 122 0 16 -34 57 -107 131 -59 60 -112 109 -118 109 -7 0 -19
-8 -28 -18z"/>
<path d="M18968 829 c-35 -20 -20 -52 69 -141 l88 -88 -88 -88 c-91 -91 -105
-122 -66 -142 16 -9 26 -8 43 4 35 23 201 205 204 225 3 19 -201 241 -221 241
-7 0 -20 -5 -29 -11z"/>
<path d="M19282 828 c-24 -24 -10 -52 69 -139 l81 -89 -81 -89 c-47 -51 -81
-97 -81 -109 0 -25 34 -46 54 -35 23 13 216 222 216 233 0 6 -32 46 -71 88
-142 153 -160 167 -187 140z"/>
<path d="M19597 822 c-10 -10 -17 -24 -17 -30 0 -6 39 -52 86 -102 l87 -91
-87 -88 c-47 -49 -86 -95 -86 -103 0 -15 30 -48 45 -48 4 0 57 48 116 107 83
81 109 113 109 132 0 19 -27 53 -107 134 -58 59 -112 107 -118 107 -7 0 -19
-8 -28 -18z"/>
<path d="M12661 737 c-8 -10 -9 -38 -6 -88 8 -100 13 -119 29 -119 15 0 31
114 24 180 -3 38 -26 51 -47 27z"/>
<path d="M10240 708 c-29 -47 -25 -56 10 -23 30 29 39 55 20 55 -6 0 -19 -15
-30 -32z"/>
<path d="M10630 725 c0 -8 6 -15 13 -15 7 0 27 -26 44 -57 l32 -58 -36 -57
c-20 -32 -42 -58 -50 -58 -32 0 -4 -25 30 -28 32 -3 37 0 37 18 0 22 29 80 40
80 12 0 38 -61 33 -79 -5 -19 -1 -21 46 -21 37 0 51 4 51 14 0 8 -6 16 -13 19
-7 3 -28 33 -46 66 l-33 62 32 49 c18 28 38 50 46 50 8 0 14 7 14 15 0 11 -11
15 -41 15 -33 0 -40 -3 -37 -18 1 -10 -6 -31 -16 -47 l-19 -28 -15 29 c-9 16
-15 37 -13 47 2 14 -6 17 -48 17 -39 0 -51 -4 -51 -15z"/>
<path d="M11794 726 c-10 -26 4 -48 28 -44 17 2 23 10 23 28 0 18 -6 26 -23
28 -13 2 -25 -3 -28 -12z"/>
<path d="M7263 723 c15 -4 17 -18 17 -122 0 -78 -4 -121 -12 -129 -9 -9 -3
-12 30 -12 23 0 42 4 42 10 0 5 -6 9 -12 7 -9 -1 -14 14 -16 46 l-3 47 41 0
c51 0 90 34 90 80 0 19 -9 40 -25 55 -21 22 -32 25 -97 24 -40 -1 -65 -3 -55
-6z m114 -11 c21 -13 33 -60 23 -87 -11 -28 -51 -51 -74 -42 -12 5 -16 22 -16
72 0 64 0 65 28 65 15 0 32 -4 39 -8z"/>
<path d="M10532 690 c-114 -82 -107 -239 11 -240 51 0 87 35 87 85 0 43 -37
85 -75 85 -14 0 -25 4 -25 9 0 10 53 57 71 63 15 5 3 28 -15 28 -7 0 -32 -13
-54 -30z m26 -112 c32 -32 1 -116 -33 -88 -26 22 -14 100 15 100 3 0 11 -5 18
-12z"/>
<path d="M8830 675 c0 -9 -10 -20 -22 -25 -13 -5 -17 -9 -10 -9 8 -1 12 -23
12 -74 0 -80 14 -112 46 -105 12 2 20 12 21 28 1 16 0 18 -3 7 -3 -10 -11 -16
-17 -14 -8 2 -12 30 -12 77 0 71 1 74 25 81 l25 6 -25 4 c-17 3 -24 9 -22 22
2 9 -2 17 -8 17 -5 0 -10 -7 -10 -15z"/>
<path d="M10082 673 c-7 -13 -20 -23 -29 -23 -16 0 -16 -1 0 -12 12 -10 17
-32 19 -93 3 -78 4 -80 28 -80 20 0 25 5 27 25 1 14 0 18 -3 8 -12 -42 -24
-12 -24 61 0 75 1 80 23 84 22 4 22 4 0 6 -14 1 -23 9 -25 24 l-3 22 -13 -22z"/>
<path d="M7774 665 c-4 -9 -19 -15 -39 -15 -56 0 -82 -49 -55 -101 8 -15 7
-19 -4 -19 -20 0 -31 -37 -16 -55 8 -10 8 -19 1 -34 -21 -38 11 -71 66 -71 60
0 109 65 77 101 -13 14 -31 19 -70 19 -53 0 -78 15 -53 31 8 5 31 9 51 9 29 0
41 6 54 26 15 22 16 31 5 60 -15 41 -5 66 16 39 9 -14 16 -16 24 -8 6 6 8 16
5 22 -10 16 -56 13 -62 -4z m-19 -75 c0 -39 -3 -45 -22 -48 -17 -3 -24 3 -29
22 -10 43 3 78 29 74 19 -3 22 -9 22 -48z m35 -145 c9 -11 7 -19 -14 -40 -27
-27 -64 -33 -84 -13 -13 13 -16 50 -5 61 12 13 90 7 103 -8z"/>
<path d="M10996 638 c-32 -46 -16 -81 52 -108 36 -14 39 -22 17 -40 -20 -17
-43 -6 -55 25 -13 34 -30 23 -30 -20 0 -36 12 -45 61 -45 41 0 68 16 80 48 8
21 6 31 -11 54 -11 15 -16 28 -10 28 7 0 10 15 8 38 -3 37 -4 37 -50 40 -39 3
-49 -1 -62 -20z m82 -37 c3 -20 1 -22 -20 -16 -30 10 -32 11 -24 30 9 24 40
14 44 -14z"/>
<path d="M11169 634 c-19 -21 -24 -36 -24 -81 0 -48 4 -58 28 -79 50 -43 137
-20 137 36 0 27 -14 25 -34 -5 -27 -41 -76 -27 -76 22 0 21 4 23 55 23 l55 0
0 35 c0 47 -29 75 -78 75 -28 0 -45 -7 -63 -26z m89 -32 c3 -19 -1 -22 -27
-22 -33 0 -41 16 -19 38 18 18 43 10 46 -16z"/>
<path d="M11330 645 c0 -8 5 -15 10 -15 6 0 10 -32 10 -75 0 -43 -4 -75 -10
-75 -5 0 -10 -7 -10 -15 0 -11 12 -15 44 -15 42 0 74 19 48 28 -15 5 -16 96
-2 123 13 23 36 25 44 3 10 -25 7 -112 -4 -119 -5 -3 -10 -13 -10 -21 0 -10
12 -14 45 -14 33 0 45 4 45 15 0 8 -4 15 -10 15 -15 0 -12 103 4 125 8 11 19
16 30 12 12 -5 16 -20 16 -66 0 -33 -4 -63 -10 -66 -5 -3 -10 -13 -10 -21 0
-12 11 -14 47 -12 26 2 48 9 51 16 2 6 -3 12 -12 12 -13 0 -16 13 -16 68 0 83
-16 112 -64 112 -17 0 -37 -5 -44 -12 -8 -8 -15 -8 -24 0 -7 6 -48 11 -91 11
-61 0 -77 -3 -77 -14z"/>
<path d="M11770 645 c0 -8 5 -15 10 -15 6 0 10 -47 9 -122 -1 -68 -4 -112 -8
-98 -9 31 -36 38 -50 12 -14 -26 12 -62 44 -62 53 0 75 58 75 203 l0 97 -40 0
c-29 0 -40 -4 -40 -15z"/>
<path d="M11870 645 c0 -8 5 -15 10 -15 6 0 10 -27 10 -61 0 -59 11 -96 34
-111 17 -12 61 -9 74 4 9 9 12 9 12 0 0 -15 66 -16 76 -1 4 7 -1 16 -10 21
-13 7 -16 26 -16 93 l0 85 -40 0 c-29 0 -40 -4 -40 -15 0 -8 7 -15 15 -15 11
0 15 -11 15 -42 0 -51 -19 -91 -43 -96 -15 -3 -17 6 -17 82 l0 86 -40 0 c-29
0 -40 -4 -40 -15z"/>
<path d="M12100 645 c0 -8 5 -15 10 -15 6 0 10 -32 10 -75 0 -43 -4 -75 -10
-75 -5 0 -10 -7 -10 -15 0 -12 13 -15 55 -15 42 0 55 3 55 15 0 8 -7 15 -15
15 -11 0 -15 13 -15 54 0 57 7 86 20 86 5 0 10 -10 12 -22 2 -17 9 -23 26 -22
19 0 22 -5 22 -33 0 -49 45 -93 95 -93 85 0 128 110 69 179 -34 41 -98 44
-134 6 l-23 -25 -11 23 c-10 19 -20 22 -84 25 -59 2 -72 -1 -72 -13z m289 -49
c10 -21 11 -39 5 -64 -20 -77 -79 -61 -79 22 0 74 46 100 74 42z"/>
<path d="M12486 638 c-32 -46 -15 -81 52 -108 35 -14 38 -20 20 -38 -20 -20
-37 -14 -53 18 -19 37 -35 31 -35 -15 0 -37 12 -45 66 -45 24 0 43 8 59 25 30
29 31 45 4 79 -11 14 -16 26 -11 26 5 0 12 16 14 35 4 39 -4 45 -62 45 -29 0
-43 -6 -54 -22z m82 -36 c4 -25 -6 -28 -33 -9 -10 8 -15 19 -11 26 12 19 41 8
44 -17z"/>
<path d="M7485 634 c-17 -18 -17 -45 1 -51 6 -2 14 10 18 27 5 26 10 31 28 28
19 -2 24 -10 26 -40 3 -37 2 -38 -31 -38 -37 0 -67 -25 -67 -56 0 -43 48 -58
82 -27 17 15 19 15 31 -1 19 -26 52 -17 54 14 1 16 0 18 -3 7 -12 -40 -29 -8
-32 58 -2 38 -8 75 -14 82 -15 18 -73 16 -93 -3z m75 -98 c0 -24 -36 -60 -53
-53 -20 7 -22 38 -5 55 17 17 58 15 58 -2z"/>
<path d="M7872 638 c-7 -7 -12 -22 -12 -35 0 -33 28 -29 32 4 2 18 10 29 22
31 23 5 36 -14 36 -50 0 -25 -3 -28 -35 -28 -22 0 -43 -8 -55 -20 -25 -25 -25
-32 -1 -61 16 -20 23 -22 47 -14 15 6 29 17 32 25 4 12 2 13 -9 3 -17 -17 -46
-16 -52 1 -9 22 21 56 49 56 20 0 23 -4 19 -23 -9 -33 27 -76 51 -61 10 6 20
17 22 25 4 11 2 12 -9 2 -24 -23 -29 -14 -29 56 0 50 -4 74 -16 85 -18 19 -75
21 -92 4z"/>
<path d="M8053 639 c14 -8 17 -24 17 -84 0 -60 -3 -76 -17 -84 -15 -9 -12 -10
17 -11 l35 0 -3 56 c-6 87 27 143 63 108 19 -19 21 -134 3 -152 -9 -9 -4 -12
26 -12 33 0 37 2 26 15 -18 22 -8 120 15 145 13 15 22 17 36 9 16 -8 19 -21
19 -77 0 -40 -5 -73 -12 -80 -9 -9 -3 -12 27 -12 30 0 36 3 27 12 -7 7 -12 39
-12 76 0 35 -5 72 -10 83 -15 26 -64 25 -84 -2 l-14 -21 -11 21 c-14 26 -57
28 -83 4 -17 -15 -18 -15 -18 0 0 13 -9 17 -32 17 -27 -1 -30 -2 -15 -11z"/>
<path d="M8405 625 c-53 -53 -19 -165 50 -165 32 0 61 14 69 35 4 11 -2 10
-23 -6 -34 -25 -63 -19 -79 17 -23 48 -17 54 49 54 l62 0 -7 32 c-9 44 -24 58
-63 58 -23 0 -42 -8 -58 -25z m85 -4 c21 -40 13 -51 -36 -51 -42 0 -45 1 -38
23 15 49 54 64 74 28z"/>
<path d="M8578 643 c8 -3 12 -31 12 -88 0 -57 -4 -85 -12 -88 -7 -3 4 -6 26
-6 33 -1 37 1 26 14 -13 16 -7 104 10 136 14 25 37 30 55 13 19 -19 21 -134 3
-152 -9 -9 -3 -12 27 -12 30 0 36 3 27 12 -7 7 -12 39 -12 76 0 35 -5 72 -10
83 -15 28 -73 26 -93 -3 l-16 -23 0 23 c-1 17 -7 22 -28 21 -16 0 -22 -3 -15
-6z"/>
<path d="M8949 640 c-9 -5 -22 -23 -29 -40 -39 -94 66 -184 135 -115 35 34 35
112 2 143 -25 23 -79 29 -108 12z m85 -22 c33 -46 11 -148 -31 -148 -34 0 -53
31 -53 86 0 78 48 113 84 62z"/>
<path d="M9249 624 c-36 -38 -34 -107 4 -140 15 -13 41 -24 56 -24 26 0 61 26
61 45 0 5 -9 -1 -20 -13 -12 -12 -29 -22 -40 -22 -23 0 -50 36 -50 67 0 21 4
23 55 23 54 0 55 1 55 28 0 61 -76 84 -121 36z m85 0 c16 -41 7 -54 -34 -54
-43 0 -50 13 -30 51 13 23 55 25 64 3z"/>
<path d="M9423 643 c14 -4 17 -17 17 -82 0 -46 -5 -82 -12 -89 -9 -9 -5 -12
19 -12 l30 0 -5 49 c-8 86 19 142 59 121 16 -9 19 -22 19 -78 0 -40 -5 -73
-12 -80 -9 -9 -4 -12 26 -12 33 0 37 2 26 15 -18 22 -8 120 15 145 13 15 22
17 36 9 16 -8 19 -21 19 -77 0 -40 -5 -73 -12 -80 -9 -9 -3 -12 27 -12 30 0
36 3 27 12 -7 7 -12 39 -12 76 0 35 -5 72 -10 83 -15 26 -64 25 -84 -2 l-14
-21 -11 21 c-14 26 -57 28 -83 4 -17 -15 -18 -15 -18 0 0 13 -8 17 -32 16 -18
-1 -25 -3 -15 -6z"/>
<path d="M9882 638 c-7 -7 -12 -22 -12 -35 0 -33 28 -29 32 4 2 18 10 29 22
31 23 5 36 -14 36 -50 0 -25 -3 -28 -35 -28 -32 0 -75 -27 -75 -48 0 -19 33
-52 54 -52 23 0 46 17 46 34 0 6 -5 5 -12 -2 -16 -16 -45 -15 -51 2 -9 22 21
56 49 56 20 0 23 -4 19 -23 -9 -33 27 -76 51 -61 10 6 20 17 22 25 4 11 2 12
-9 2 -24 -23 -29 -14 -29 56 0 50 -4 74 -16 85 -18 19 -75 21 -92 4z"/>
<path d="M10189 624 c-36 -38 -34 -107 4 -140 33 -29 77 -31 100 -6 24 26 21
36 -3 12 -11 -11 -29 -20 -39 -20 -24 0 -51 36 -51 67 0 21 4 23 55 23 54 0
55 1 55 28 0 61 -76 84 -121 36z m89 -21 c3 -32 2 -33 -37 -33 -34 0 -41 3
-41 19 0 27 28 53 54 49 16 -2 22 -11 24 -35z"/>
<path d="M12656 494 c-9 -22 17 -49 39 -40 10 3 15 15 13 28 -4 29 -42 37 -52
12z"/>
</g>
</svg>
